{"title":"WWE TLC PPV 2009 NORARS","uid":5219946,"size":776005428,"categoryP":"video","categoryS":"movies","magnet":"?xt=urn:btih:dab9f6d1255b632a9b9153a22bee8cd0f758ad8a&amp;dn=WWE+TLC+PPV+2009+NORARS&amp;tr=udp%3A%2F%2Ftracker.openbittorrent.com%3A80&amp;tr=udp%3A%2F%2Fopen.demonii.com%3A1337&amp;tr=udp%3A%2F%2Ftracker.coppersurfer.tk%3A6969&amp;tr=udp%3A%2F%2Fexodus.desync.com%3A6969","seeders":0,"leechers":1,"uploader":"IwannaFan2","files":1,"time":1260895103,"description":"Great quality. Shrunk for faster downloading.\n\nVideo\nID                               : 0\nFormat                           : MPEG-4 Visual\nFormat settings, BVOP            : Yes\nFormat settings, QPel            : No\nFormat settings, GMC             : No warppoints\nFormat settings, Matrix          : Default (H.263)\nMuxing mode                      : Packed bitstream\nCodec ID                         : DX50\nCodec ID/Hint                    : DivX 5\nDuration                         : 2h 52mn\nBit rate                         : 461 Kbps\nWidth                            : 640 pixels\nHeight                           : 480 pixels\nDisplay aspect ratio             : 4:3\nFrame rate                       : 30.000 fps\nResolution                       : 24 bits\nColorimetry                      : 4:2:0\nScan type                        : Progressive\nBits/(Pixel*Frame)               : 0.050\nStream size                      : 568 MiB (77%)\nWriting library                  : DivX 2151\n\nAudio\nID                               : 1\nFormat                           : MPEG Audio\nFormat version                   : Version 1\nFormat profile                   : Layer 3\nCodec ID                         : 55\nCodec ID/Hint                    : MP3\nDuration                         : 2h 52mn\nBit rate mode                    : Constant\nBit rate                         : 128 Kbps\nChannel(s)                       : 2 channels\nSampling rate                    : 48.0 KHz\nResolution                       : 16 bits\nStream size                      : 158 MiB (21%)\nAlignment                        : Aligned on interleaves\nInterleave, duration             : 33 ms (1.00 video frame)\n","torrent":{"xt":"urn:btih:dab9f6d1255b632a9b9153a22bee8cd0f758ad8a","amp;dn":"WWE+TLC+PPV+2009+NORARS","amp;tr":["udp%3A%2F%2Ftracker.openbittorrent.com%3A80","udp%3A%2F%2Fopen.demonii.com%3A1337","udp%3A%2F%2Ftracker.coppersurfer.tk%3A6969","udp%3A%2F%2Fexodus.desync.com%3A6969"],"infoHash":"dab9f6d1255b632a9b9153a22bee8cd0f758ad8a","infoHashBuffer":{"type":"Buffer","data":[218,185,246,209,37,91,99,42,155,145,83,162,43,238,140,208,247,88,173,138]},"announce":[],"urlList":[]}}